<mxfile host="app.diagrams.net" modified="2023-09-18T21:31:08.272Z" agent="Mozilla/5.0 (Windows NT 10.0; Win64; x64) AppleWebKit/537.36 (KHTML, like Gecko) Chrome/116.0.0.0 Safari/537.36" etag="MKTet4FkRjJ8dPEQqRhb" version="21.7.5" type="device">
  <diagram id="C5RBs43oDa-KdzZeNtuy" name="Page-1">
    <mxGraphModel dx="2261" dy="758" grid="1" gridSize="10" guides="1" tooltips="1" connect="1" arrows="1" fold="1" page="1" pageScale="1" pageWidth="827" pageHeight="1169" math="0" shadow="0">
      <root>
        <mxCell id="WIyWlLk6GJQsqaUBKTNV-0" />
        <mxCell id="WIyWlLk6GJQsqaUBKTNV-1" parent="WIyWlLk6GJQsqaUBKTNV-0" />
        <mxCell id="tk_or-6qI_pejjLJDi_g-0" value="&lt;h2&gt;&lt;font style=&quot;vertical-align: inherit;&quot;&gt;&lt;font face=&quot;Times New Roman&quot; style=&quot;vertical-align: inherit;&quot;&gt;&lt;i&gt;CAMPO DE FUTEBOL SOCIETY&lt;/i&gt;&lt;/font&gt;&lt;/font&gt;&lt;/h2&gt;" style="swimlane;whiteSpace=wrap;html=1;startSize=60;" vertex="1" parent="WIyWlLk6GJQsqaUBKTNV-1">
          <mxGeometry x="-220" y="20" width="1190" height="1000" as="geometry" />
        </mxCell>
        <mxCell id="tk_or-6qI_pejjLJDi_g-30" value="" style="edgeStyle=orthogonalEdgeStyle;rounded=0;orthogonalLoop=1;jettySize=auto;html=1;" edge="1" parent="tk_or-6qI_pejjLJDi_g-0" source="tk_or-6qI_pejjLJDi_g-24" target="tk_or-6qI_pejjLJDi_g-15">
          <mxGeometry relative="1" as="geometry" />
        </mxCell>
        <mxCell id="tk_or-6qI_pejjLJDi_g-24" value="" style="ellipse;shape=doubleEllipse;whiteSpace=wrap;html=1;aspect=fixed;fillColor=#FFFFFF;strokeColor=#FFFFFF;gradientColor=#009900;gradientDirection=radial;dashed=1;shadow=0;" vertex="1" parent="tk_or-6qI_pejjLJDi_g-0">
          <mxGeometry x="460" y="135" width="40" height="40" as="geometry" />
        </mxCell>
        <mxCell id="tk_or-6qI_pejjLJDi_g-28" value="&lt;font size=&quot;1&quot; face=&quot;Times New Roman&quot;&gt;&lt;b style=&quot;font-size: 14px;&quot;&gt;Inicio&lt;/b&gt;&lt;/font&gt;" style="text;html=1;align=center;verticalAlign=middle;resizable=0;points=[];autosize=1;strokeColor=none;fillColor=none;" vertex="1" parent="tk_or-6qI_pejjLJDi_g-0">
          <mxGeometry x="451" y="105" width="60" height="30" as="geometry" />
        </mxCell>
        <mxCell id="tk_or-6qI_pejjLJDi_g-32" value="" style="edgeStyle=orthogonalEdgeStyle;rounded=0;orthogonalLoop=1;jettySize=auto;html=1;" edge="1" parent="tk_or-6qI_pejjLJDi_g-0" source="tk_or-6qI_pejjLJDi_g-15" target="tk_or-6qI_pejjLJDi_g-5">
          <mxGeometry relative="1" as="geometry" />
        </mxCell>
        <mxCell id="tk_or-6qI_pejjLJDi_g-15" value="" style="rhombus;whiteSpace=wrap;html=1;gradientColor=#009900;fillColor=#FFFFFF;strokeColor=#009900;gradientDirection=radial;" vertex="1" parent="tk_or-6qI_pejjLJDi_g-0">
          <mxGeometry x="570" y="135" width="40" height="40" as="geometry" />
        </mxCell>
        <mxCell id="tk_or-6qI_pejjLJDi_g-49" value="" style="edgeStyle=orthogonalEdgeStyle;rounded=0;orthogonalLoop=1;jettySize=auto;html=1;" edge="1" parent="tk_or-6qI_pejjLJDi_g-0" source="tk_or-6qI_pejjLJDi_g-5" target="tk_or-6qI_pejjLJDi_g-25">
          <mxGeometry relative="1" as="geometry" />
        </mxCell>
        <mxCell id="tk_or-6qI_pejjLJDi_g-51" value="" style="edgeStyle=orthogonalEdgeStyle;rounded=0;orthogonalLoop=1;jettySize=auto;html=1;" edge="1" parent="tk_or-6qI_pejjLJDi_g-0" source="tk_or-6qI_pejjLJDi_g-5" target="tk_or-6qI_pejjLJDi_g-45">
          <mxGeometry relative="1" as="geometry" />
        </mxCell>
        <mxCell id="tk_or-6qI_pejjLJDi_g-5" value="&lt;font face=&quot;Times New Roman&quot;&gt;&lt;b&gt;Apresentar no APP: CPF, RG, COMPROVANTE DE ENDEREÇO&lt;/b&gt;&lt;/font&gt;" style="shape=ext;double=1;rounded=1;whiteSpace=wrap;html=1;fillColor=#cce5ff;strokeColor=none;gradientDirection=radial;gradientColor=#99CCFF;" vertex="1" parent="tk_or-6qI_pejjLJDi_g-0">
          <mxGeometry x="669" y="115" width="130" height="80" as="geometry" />
        </mxCell>
        <mxCell id="tk_or-6qI_pejjLJDi_g-25" value="" style="ellipse;shape=doubleEllipse;whiteSpace=wrap;html=1;aspect=fixed;fillColor=#FFFFFF;strokeColor=#000000;gradientColor=#CC0000;gradientDirection=radial;dashed=1;shadow=0;" vertex="1" parent="tk_or-6qI_pejjLJDi_g-0">
          <mxGeometry x="899" y="135" width="40" height="40" as="geometry" />
        </mxCell>
        <mxCell id="tk_or-6qI_pejjLJDi_g-54" value="" style="edgeStyle=orthogonalEdgeStyle;rounded=0;orthogonalLoop=1;jettySize=auto;html=1;" edge="1" parent="tk_or-6qI_pejjLJDi_g-0" source="tk_or-6qI_pejjLJDi_g-45" target="tk_or-6qI_pejjLJDi_g-40">
          <mxGeometry relative="1" as="geometry" />
        </mxCell>
        <mxCell id="tk_or-6qI_pejjLJDi_g-45" value="" style="rhombus;whiteSpace=wrap;html=1;gradientColor=#009900;fillColor=#FFFFFF;strokeColor=#009900;gradientDirection=radial;" vertex="1" parent="tk_or-6qI_pejjLJDi_g-0">
          <mxGeometry x="714" y="265" width="40" height="40" as="geometry" />
        </mxCell>
        <mxCell id="tk_or-6qI_pejjLJDi_g-53" value="&lt;font style=&quot;font-size: 14px;&quot; face=&quot;Times New Roman&quot;&gt;&lt;b&gt;Cadastro correto, &lt;br&gt;apto para cadastrar &lt;br&gt;login&lt;/b&gt;&lt;/font&gt;" style="text;html=1;align=center;verticalAlign=middle;resizable=0;points=[];autosize=1;strokeColor=none;fillColor=none;" vertex="1" parent="tk_or-6qI_pejjLJDi_g-0">
          <mxGeometry x="759" y="255" width="140" height="60" as="geometry" />
        </mxCell>
        <mxCell id="tk_or-6qI_pejjLJDi_g-55" value="" style="edgeStyle=orthogonalEdgeStyle;rounded=0;orthogonalLoop=1;jettySize=auto;html=1;" edge="1" parent="tk_or-6qI_pejjLJDi_g-0" source="tk_or-6qI_pejjLJDi_g-40" target="tk_or-6qI_pejjLJDi_g-46">
          <mxGeometry relative="1" as="geometry" />
        </mxCell>
        <mxCell id="tk_or-6qI_pejjLJDi_g-64" value="" style="edgeStyle=orthogonalEdgeStyle;rounded=0;orthogonalLoop=1;jettySize=auto;html=1;" edge="1" parent="tk_or-6qI_pejjLJDi_g-0" source="tk_or-6qI_pejjLJDi_g-40" target="tk_or-6qI_pejjLJDi_g-41">
          <mxGeometry relative="1" as="geometry" />
        </mxCell>
        <mxCell id="tk_or-6qI_pejjLJDi_g-40" value="&lt;font size=&quot;1&quot; face=&quot;Times New Roman&quot;&gt;&lt;b style=&quot;font-size: 14px;&quot;&gt;Realizar cadastro de usuário e senha para acessar a plataforma&lt;/b&gt;&lt;/font&gt;" style="shape=ext;double=1;rounded=1;whiteSpace=wrap;html=1;fillColor=#cce5ff;strokeColor=none;gradientDirection=radial;gradientColor=#99CCFF;" vertex="1" parent="tk_or-6qI_pejjLJDi_g-0">
          <mxGeometry x="669" y="375" width="130" height="80" as="geometry" />
        </mxCell>
        <mxCell id="tk_or-6qI_pejjLJDi_g-63" value="" style="edgeStyle=orthogonalEdgeStyle;rounded=0;orthogonalLoop=1;jettySize=auto;html=1;entryX=1;entryY=0;entryDx=0;entryDy=0;" edge="1" parent="tk_or-6qI_pejjLJDi_g-0" source="tk_or-6qI_pejjLJDi_g-46" target="tk_or-6qI_pejjLJDi_g-45">
          <mxGeometry relative="1" as="geometry">
            <mxPoint x="746" y="255" as="targetPoint" />
            <Array as="points">
              <mxPoint x="919" y="235" />
              <mxPoint x="756" y="235" />
              <mxPoint x="756" y="275" />
            </Array>
          </mxGeometry>
        </mxCell>
        <mxCell id="tk_or-6qI_pejjLJDi_g-46" value="" style="rhombus;whiteSpace=wrap;html=1;gradientColor=#CC0000;fillColor=#FFFFFF;strokeColor=#CC0000;gradientDirection=radial;" vertex="1" parent="tk_or-6qI_pejjLJDi_g-0">
          <mxGeometry x="899" y="395" width="40" height="40" as="geometry" />
        </mxCell>
        <mxCell id="tk_or-6qI_pejjLJDi_g-56" value="&lt;font style=&quot;font-size: 14px;&quot; face=&quot;Times New Roman&quot;&gt;&lt;b&gt;Usuário e senha&lt;br&gt;&amp;nbsp;Já existente&lt;/b&gt;&lt;/font&gt;" style="text;html=1;align=center;verticalAlign=middle;resizable=0;points=[];autosize=1;strokeColor=none;fillColor=none;" vertex="1" parent="tk_or-6qI_pejjLJDi_g-0">
          <mxGeometry x="859" y="435" width="120" height="50" as="geometry" />
        </mxCell>
        <mxCell id="tk_or-6qI_pejjLJDi_g-66" value="" style="edgeStyle=orthogonalEdgeStyle;rounded=0;orthogonalLoop=1;jettySize=auto;html=1;" edge="1" parent="tk_or-6qI_pejjLJDi_g-0" source="tk_or-6qI_pejjLJDi_g-41" target="tk_or-6qI_pejjLJDi_g-39">
          <mxGeometry relative="1" as="geometry" />
        </mxCell>
        <mxCell id="tk_or-6qI_pejjLJDi_g-82" value="" style="edgeStyle=orthogonalEdgeStyle;rounded=0;orthogonalLoop=1;jettySize=auto;html=1;" edge="1" parent="tk_or-6qI_pejjLJDi_g-0" source="tk_or-6qI_pejjLJDi_g-41" target="tk_or-6qI_pejjLJDi_g-48">
          <mxGeometry relative="1" as="geometry" />
        </mxCell>
        <mxCell id="tk_or-6qI_pejjLJDi_g-41" value="" style="rhombus;whiteSpace=wrap;html=1;gradientColor=#009900;fillColor=#FFFFFF;strokeColor=#009900;gradientDirection=radial;" vertex="1" parent="tk_or-6qI_pejjLJDi_g-0">
          <mxGeometry x="714" y="520" width="40" height="40" as="geometry" />
        </mxCell>
        <mxCell id="tk_or-6qI_pejjLJDi_g-65" value="&lt;b&gt;&lt;font style=&quot;font-size: 14px;&quot; face=&quot;Times New Roman&quot;&gt;Após efetuar login, &lt;br&gt;seleciona a opção &lt;br&gt;CAMPOS DISPONIVEIS&lt;/font&gt;&lt;/b&gt;" style="text;html=1;align=center;verticalAlign=middle;resizable=0;points=[];autosize=1;strokeColor=none;fillColor=none;" vertex="1" parent="tk_or-6qI_pejjLJDi_g-0">
          <mxGeometry x="739" y="510" width="180" height="60" as="geometry" />
        </mxCell>
        <mxCell id="tk_or-6qI_pejjLJDi_g-67" value="" style="edgeStyle=orthogonalEdgeStyle;rounded=0;orthogonalLoop=1;jettySize=auto;html=1;" edge="1" parent="tk_or-6qI_pejjLJDi_g-0" source="tk_or-6qI_pejjLJDi_g-39" target="tk_or-6qI_pejjLJDi_g-47">
          <mxGeometry relative="1" as="geometry" />
        </mxCell>
        <mxCell id="tk_or-6qI_pejjLJDi_g-39" value="&lt;b&gt;&lt;font style=&quot;font-size: 14px;&quot; face=&quot;Times New Roman&quot;&gt;Sistema exibe os campos&lt;br&gt;&amp;nbsp;disponíveis de acordo com a localização do usuário do campo mais próximo ao mais longe&amp;nbsp;&amp;nbsp;&lt;/font&gt;&lt;/b&gt;" style="shape=ext;double=1;rounded=1;whiteSpace=wrap;html=1;fillColor=#cce5ff;strokeColor=none;gradientDirection=radial;gradientColor=#99CCFF;" vertex="1" parent="tk_or-6qI_pejjLJDi_g-0">
          <mxGeometry x="629" y="625" width="210" height="90" as="geometry" />
        </mxCell>
        <mxCell id="tk_or-6qI_pejjLJDi_g-69" value="" style="edgeStyle=orthogonalEdgeStyle;rounded=0;orthogonalLoop=1;jettySize=auto;html=1;" edge="1" parent="tk_or-6qI_pejjLJDi_g-0" source="tk_or-6qI_pejjLJDi_g-47" target="tk_or-6qI_pejjLJDi_g-38">
          <mxGeometry relative="1" as="geometry" />
        </mxCell>
        <mxCell id="tk_or-6qI_pejjLJDi_g-47" value="" style="rhombus;whiteSpace=wrap;html=1;gradientColor=#009900;fillColor=#FFFFFF;strokeColor=#009900;gradientDirection=radial;" vertex="1" parent="tk_or-6qI_pejjLJDi_g-0">
          <mxGeometry x="500" y="650" width="40" height="40" as="geometry" />
        </mxCell>
        <mxCell id="tk_or-6qI_pejjLJDi_g-68" value="&lt;b style=&quot;font-size: 14px;&quot;&gt;&lt;font style=&quot;font-size: 14px;&quot; face=&quot;Times New Roman&quot;&gt;Usuário seleciona &lt;br&gt;o campo disponível&lt;/font&gt;&lt;/b&gt;" style="text;html=1;align=center;verticalAlign=middle;resizable=0;points=[];autosize=1;strokeColor=none;fillColor=none;" vertex="1" parent="tk_or-6qI_pejjLJDi_g-0">
          <mxGeometry x="451" y="605" width="140" height="50" as="geometry" />
        </mxCell>
        <mxCell id="tk_or-6qI_pejjLJDi_g-31" value="&lt;font style=&quot;&quot; face=&quot;Times New Roman&quot;&gt;&lt;b style=&quot;font-size: 13px;&quot;&gt;Acessar o APP para &lt;/b&gt;&lt;br&gt;&lt;b style=&quot;font-size: 13px;&quot;&gt;cadastrar &lt;/b&gt;&lt;span style=&quot;font-size: 13px;&quot;&gt;&lt;b&gt;usuário&lt;/b&gt;&lt;/span&gt;&lt;b style=&quot;font-size: 13px;&quot;&gt;/login&lt;/b&gt;&lt;br&gt;&lt;/font&gt;" style="text;html=1;align=center;verticalAlign=middle;resizable=0;points=[];autosize=1;strokeColor=none;fillColor=none;" vertex="1" parent="tk_or-6qI_pejjLJDi_g-0">
          <mxGeometry x="515" y="100" width="150" height="40" as="geometry" />
        </mxCell>
        <mxCell id="tk_or-6qI_pejjLJDi_g-74" value="" style="edgeStyle=orthogonalEdgeStyle;rounded=0;orthogonalLoop=1;jettySize=auto;html=1;" edge="1" parent="tk_or-6qI_pejjLJDi_g-0" source="tk_or-6qI_pejjLJDi_g-38" target="tk_or-6qI_pejjLJDi_g-70">
          <mxGeometry relative="1" as="geometry" />
        </mxCell>
        <mxCell id="tk_or-6qI_pejjLJDi_g-77" value="" style="edgeStyle=orthogonalEdgeStyle;rounded=0;orthogonalLoop=1;jettySize=auto;html=1;" edge="1" parent="tk_or-6qI_pejjLJDi_g-0" source="tk_or-6qI_pejjLJDi_g-38">
          <mxGeometry relative="1" as="geometry">
            <mxPoint x="520" y="875" as="targetPoint" />
          </mxGeometry>
        </mxCell>
        <mxCell id="tk_or-6qI_pejjLJDi_g-38" value="&lt;b&gt;&lt;font face=&quot;Times New Roman&quot;&gt;O usuário escolhe a data e horário desejado e o sistema verifica a disponibilidade&lt;/font&gt;&lt;/b&gt;" style="shape=ext;double=1;rounded=1;whiteSpace=wrap;html=1;fillColor=#cce5ff;strokeColor=none;gradientDirection=radial;gradientColor=#99CCFF;" vertex="1" parent="tk_or-6qI_pejjLJDi_g-0">
          <mxGeometry x="440" y="745" width="160" height="80" as="geometry" />
        </mxCell>
        <mxCell id="tk_or-6qI_pejjLJDi_g-76" style="edgeStyle=orthogonalEdgeStyle;rounded=0;orthogonalLoop=1;jettySize=auto;html=1;entryX=0;entryY=0.5;entryDx=0;entryDy=0;" edge="1" parent="tk_or-6qI_pejjLJDi_g-0" source="tk_or-6qI_pejjLJDi_g-70" target="tk_or-6qI_pejjLJDi_g-47">
          <mxGeometry relative="1" as="geometry">
            <Array as="points">
              <mxPoint x="360" y="670" />
            </Array>
          </mxGeometry>
        </mxCell>
        <mxCell id="tk_or-6qI_pejjLJDi_g-70" value="" style="rhombus;whiteSpace=wrap;html=1;gradientColor=#CC0000;fillColor=#FFFFFF;strokeColor=#CC0000;gradientDirection=radial;" vertex="1" parent="tk_or-6qI_pejjLJDi_g-0">
          <mxGeometry x="340" y="765" width="40" height="40" as="geometry" />
        </mxCell>
        <mxCell id="tk_or-6qI_pejjLJDi_g-50" value="&lt;b style=&quot;font-size: 14px;&quot;&gt;&lt;font style=&quot;font-size: 14px;&quot; face=&quot;Times New Roman&quot;&gt;NÃO conformidade&lt;br&gt;&amp;nbsp;dos documentos&lt;/font&gt;&lt;/b&gt;" style="text;html=1;align=center;verticalAlign=middle;resizable=0;points=[];autosize=1;strokeColor=none;fillColor=none;" vertex="1" parent="tk_or-6qI_pejjLJDi_g-0">
          <mxGeometry x="849" y="90" width="140" height="50" as="geometry" />
        </mxCell>
        <mxCell id="tk_or-6qI_pejjLJDi_g-75" value="&lt;b style=&quot;font-size: 14px;&quot;&gt;&lt;font style=&quot;font-size: 14px;&quot; face=&quot;Times New Roman&quot;&gt;Campo não disponível&amp;nbsp;&lt;br&gt;na data e horário &lt;br&gt;selecionado&lt;/font&gt;&lt;/b&gt;" style="text;html=1;align=center;verticalAlign=middle;resizable=0;points=[];autosize=1;strokeColor=none;fillColor=none;" vertex="1" parent="tk_or-6qI_pejjLJDi_g-0">
          <mxGeometry x="200" y="745" width="160" height="70" as="geometry" />
        </mxCell>
        <mxCell id="tk_or-6qI_pejjLJDi_g-78" value="&lt;b style=&quot;font-size: 14px;&quot;&gt;&lt;font style=&quot;font-size: 14px;&quot; face=&quot;Times New Roman&quot;&gt;Sistema confirma&lt;br&gt;&amp;nbsp;o agendamento e atualiza&lt;br&gt;&amp;nbsp;como campo agendado&lt;/font&gt;&lt;/b&gt;" style="text;html=1;align=center;verticalAlign=middle;resizable=0;points=[];autosize=1;strokeColor=none;fillColor=none;" vertex="1" parent="tk_or-6qI_pejjLJDi_g-0">
          <mxGeometry x="320" y="860" width="180" height="70" as="geometry" />
        </mxCell>
        <mxCell id="tk_or-6qI_pejjLJDi_g-84" value="" style="edgeStyle=orthogonalEdgeStyle;rounded=0;orthogonalLoop=1;jettySize=auto;html=1;" edge="1" parent="tk_or-6qI_pejjLJDi_g-0" source="tk_or-6qI_pejjLJDi_g-48" target="tk_or-6qI_pejjLJDi_g-33">
          <mxGeometry relative="1" as="geometry" />
        </mxCell>
        <mxCell id="tk_or-6qI_pejjLJDi_g-48" value="" style="rhombus;whiteSpace=wrap;html=1;gradientColor=#009900;fillColor=#FFFFFF;strokeColor=#009900;gradientDirection=radial;" vertex="1" parent="tk_or-6qI_pejjLJDi_g-0">
          <mxGeometry x="610" y="520" width="40" height="40" as="geometry" />
        </mxCell>
        <mxCell id="tk_or-6qI_pejjLJDi_g-83" value="&lt;b style=&quot;font-size: 14px;&quot;&gt;&lt;font style=&quot;font-size: 14px;&quot; face=&quot;Times New Roman&quot;&gt;Visualizar ou cancelar&lt;br&gt;agendamentos&lt;/font&gt;&lt;/b&gt;" style="text;html=1;align=center;verticalAlign=middle;resizable=0;points=[];autosize=1;strokeColor=none;fillColor=none;" vertex="1" parent="tk_or-6qI_pejjLJDi_g-0">
          <mxGeometry x="550" y="480" width="160" height="50" as="geometry" />
        </mxCell>
        <mxCell id="tk_or-6qI_pejjLJDi_g-85" value="" style="edgeStyle=orthogonalEdgeStyle;rounded=0;orthogonalLoop=1;jettySize=auto;html=1;" edge="1" parent="tk_or-6qI_pejjLJDi_g-0" source="tk_or-6qI_pejjLJDi_g-33" target="tk_or-6qI_pejjLJDi_g-34">
          <mxGeometry relative="1" as="geometry" />
        </mxCell>
        <mxCell id="tk_or-6qI_pejjLJDi_g-33" value="&lt;b style=&quot;font-size: 14px;&quot;&gt;&lt;font style=&quot;font-size: 14px;&quot; face=&quot;Times New Roman&quot;&gt;O usuário&amp;nbsp;seleciona a opção para visualizar seus&lt;br&gt;agendamentos&lt;/font&gt;&lt;/b&gt;" style="shape=ext;double=1;rounded=1;whiteSpace=wrap;html=1;fillColor=#cce5ff;strokeColor=none;gradientDirection=radial;gradientColor=#99CCFF;" vertex="1" parent="tk_or-6qI_pejjLJDi_g-0">
          <mxGeometry x="410" y="500" width="130" height="80" as="geometry" />
        </mxCell>
        <mxCell id="tk_or-6qI_pejjLJDi_g-87" style="edgeStyle=orthogonalEdgeStyle;rounded=0;orthogonalLoop=1;jettySize=auto;html=1;entryX=0;entryY=0;entryDx=0;entryDy=0;" edge="1" parent="tk_or-6qI_pejjLJDi_g-0" source="tk_or-6qI_pejjLJDi_g-34" target="tk_or-6qI_pejjLJDi_g-41">
          <mxGeometry relative="1" as="geometry">
            <Array as="points">
              <mxPoint x="650" y="395" />
              <mxPoint x="650" y="485" />
              <mxPoint x="724" y="485" />
            </Array>
          </mxGeometry>
        </mxCell>
        <mxCell id="tk_or-6qI_pejjLJDi_g-88" value="" style="edgeStyle=orthogonalEdgeStyle;rounded=0;orthogonalLoop=1;jettySize=auto;html=1;" edge="1" parent="tk_or-6qI_pejjLJDi_g-0" source="tk_or-6qI_pejjLJDi_g-34" target="tk_or-6qI_pejjLJDi_g-43">
          <mxGeometry relative="1" as="geometry" />
        </mxCell>
        <mxCell id="tk_or-6qI_pejjLJDi_g-34" value="&lt;b style=&quot;font-size: 14px;&quot;&gt;&lt;font style=&quot;font-size: 14px;&quot; face=&quot;Times New Roman&quot;&gt;&amp;nbsp;O Sistema exibe uma lista dos agendamentos&lt;br&gt;feitos pelo Usuário&lt;/font&gt;&lt;/b&gt;" style="shape=ext;double=1;rounded=1;whiteSpace=wrap;html=1;fillColor=#cce5ff;strokeColor=none;gradientDirection=radial;gradientColor=#99CCFF;" vertex="1" parent="tk_or-6qI_pejjLJDi_g-0">
          <mxGeometry x="410" y="355" width="130" height="80" as="geometry" />
        </mxCell>
        <mxCell id="tk_or-6qI_pejjLJDi_g-90" value="" style="edgeStyle=orthogonalEdgeStyle;rounded=0;orthogonalLoop=1;jettySize=auto;html=1;" edge="1" parent="tk_or-6qI_pejjLJDi_g-0" source="tk_or-6qI_pejjLJDi_g-43" target="tk_or-6qI_pejjLJDi_g-37">
          <mxGeometry relative="1" as="geometry" />
        </mxCell>
        <mxCell id="tk_or-6qI_pejjLJDi_g-43" value="" style="rhombus;whiteSpace=wrap;html=1;gradientColor=#009900;fillColor=#FFFFFF;strokeColor=#009900;gradientDirection=radial;" vertex="1" parent="tk_or-6qI_pejjLJDi_g-0">
          <mxGeometry x="455" y="255" width="40" height="40" as="geometry" />
        </mxCell>
        <mxCell id="tk_or-6qI_pejjLJDi_g-89" value="&lt;b&gt;&lt;font style=&quot;font-size: 14px;&quot; face=&quot;Times New Roman&quot;&gt;Cancelamentos&lt;/font&gt;&lt;/b&gt;" style="text;html=1;align=center;verticalAlign=middle;resizable=0;points=[];autosize=1;strokeColor=none;fillColor=none;" vertex="1" parent="tk_or-6qI_pejjLJDi_g-0">
          <mxGeometry x="490" y="260" width="110" height="30" as="geometry" />
        </mxCell>
        <mxCell id="tk_or-6qI_pejjLJDi_g-91" value="" style="edgeStyle=orthogonalEdgeStyle;rounded=0;orthogonalLoop=1;jettySize=auto;html=1;" edge="1" parent="tk_or-6qI_pejjLJDi_g-0" source="tk_or-6qI_pejjLJDi_g-37" target="tk_or-6qI_pejjLJDi_g-36">
          <mxGeometry relative="1" as="geometry" />
        </mxCell>
        <mxCell id="tk_or-6qI_pejjLJDi_g-37" value="&lt;b&gt;&lt;font face=&quot;Times New Roman&quot; style=&quot;font-size: 14px;&quot;&gt;usuário seleciona a opção cancelamentos de agendamentos&amp;nbsp;&lt;/font&gt;&lt;/b&gt;" style="shape=ext;double=1;rounded=1;whiteSpace=wrap;html=1;fillColor=#cce5ff;strokeColor=none;gradientDirection=radial;gradientColor=#99CCFF;" vertex="1" parent="tk_or-6qI_pejjLJDi_g-0">
          <mxGeometry x="280" y="235" width="130" height="80" as="geometry" />
        </mxCell>
        <mxCell id="tk_or-6qI_pejjLJDi_g-95" value="" style="edgeStyle=orthogonalEdgeStyle;rounded=0;orthogonalLoop=1;jettySize=auto;html=1;" edge="1" parent="tk_or-6qI_pejjLJDi_g-0" source="tk_or-6qI_pejjLJDi_g-36">
          <mxGeometry relative="1" as="geometry">
            <mxPoint x="120" y="415" as="targetPoint" />
          </mxGeometry>
        </mxCell>
        <mxCell id="tk_or-6qI_pejjLJDi_g-36" value="&lt;b&gt;&lt;font style=&quot;font-size: 14px;&quot; face=&quot;Times New Roman&quot;&gt;O sistema verifica a possibilidade de cancelar sendo possível com no máximo 24H de antecedência&lt;/font&gt;&lt;/b&gt;" style="shape=ext;double=1;rounded=1;whiteSpace=wrap;html=1;fillColor=#cce5ff;strokeColor=none;gradientDirection=radial;gradientColor=#99CCFF;" vertex="1" parent="tk_or-6qI_pejjLJDi_g-0">
          <mxGeometry x="30" y="230" width="180" height="90" as="geometry" />
        </mxCell>
        <mxCell id="tk_or-6qI_pejjLJDi_g-97" value="" style="edgeStyle=orthogonalEdgeStyle;rounded=0;orthogonalLoop=1;jettySize=auto;html=1;" edge="1" parent="tk_or-6qI_pejjLJDi_g-0" source="tk_or-6qI_pejjLJDi_g-96" target="tk_or-6qI_pejjLJDi_g-26">
          <mxGeometry relative="1" as="geometry" />
        </mxCell>
        <mxCell id="tk_or-6qI_pejjLJDi_g-96" value="&lt;font face=&quot;Times New Roman&quot;&gt;&lt;span style=&quot;font-size: 14px;&quot;&gt;&lt;b&gt;O sistema cancela o agendamento e atualiza a disponibilidade do campo&lt;/b&gt;&lt;/span&gt;&lt;/font&gt;" style="shape=ext;double=1;rounded=1;whiteSpace=wrap;html=1;fillColor=#cce5ff;strokeColor=none;gradientDirection=radial;gradientColor=#99CCFF;" vertex="1" parent="tk_or-6qI_pejjLJDi_g-0">
          <mxGeometry x="40" y="415" width="180" height="90" as="geometry" />
        </mxCell>
        <mxCell id="tk_or-6qI_pejjLJDi_g-26" value="" style="ellipse;shape=doubleEllipse;whiteSpace=wrap;html=1;aspect=fixed;fillColor=#FFFFFF;strokeColor=#000000;gradientColor=#CC0000;gradientDirection=radial;dashed=1;shadow=0;" vertex="1" parent="tk_or-6qI_pejjLJDi_g-0">
          <mxGeometry x="110" y="560" width="40" height="40" as="geometry" />
        </mxCell>
        <mxCell id="tk_or-6qI_pejjLJDi_g-98" value="" style="ellipse;shape=doubleEllipse;whiteSpace=wrap;html=1;aspect=fixed;fillColor=#FFFFFF;strokeColor=#000000;gradientColor=#CC0000;gradientDirection=radial;dashed=1;shadow=0;" vertex="1" parent="tk_or-6qI_pejjLJDi_g-0">
          <mxGeometry x="501" y="880" width="40" height="40" as="geometry" />
        </mxCell>
      </root>
    </mxGraphModel>
  </diagram>
</mxfile>
